<svg id="Capa_2" data-name="Capa 2" xmlns="http://www.w3.org/2000/svg" viewBox="0 0 47.45 45.76"><path d="M48.64,22.1a1.21,1.21,0,0,0-.24-.35L40.86,14.2a1.1,1.1,0,0,0-1.55,1.55L45,21.43H28a1.1,1.1,0,0,0,0,2.19H45l-5.67,5.67a1.09,1.09,0,0,0,0,1.55,1.05,1.05,0,0,0,.77.32,1.09,1.09,0,0,0,.78-.32L48.4,23.3a1.13,1.13,0,0,0,.24-.36A1.11,1.11,0,0,0,48.64,22.1Z" transform="translate(-1.28 -2.12)"/><path d="M32.07,27.75a1.38,1.38,0,0,0-1.34,1.05h-.05v10a2.4,2.4,0,0,1-2.39,2.39H20.18V11.44a4.15,4.15,0,0,0-2.77-3.88L9.81,4.88H28.29a2.4,2.4,0,0,1,2.39,2.39v8.81h0a1.39,1.39,0,0,0,2.78,0h0V7.27a5.18,5.18,0,0,0-5.17-5.15H6.43A5.17,5.17,0,0,0,1.28,7.27V40.2a4.12,4.12,0,0,0,2.8,3.91l10.68,3.55a4.06,4.06,0,0,0,1.32.22,4.15,4.15,0,0,0,4.1-4h8.11a5.17,5.17,0,0,0,5.17-5.15v-10h-.05A1.38,1.38,0,0,0,32.07,27.75Zm-14,13.42v2.59a.5.5,0,0,1,0,.17,2,2,0,0,1-.81,1.47,2,2,0,0,1-1.82.29l-5.24-1.76L4.74,42.11A2,2,0,0,1,3.38,40.2V7.69a2,2,0,0,1,.84-1.64,1.4,1.4,0,0,1,.26-.16h0A2.05,2.05,0,0,1,6.06,5.8L16.73,9.53a2,2,0,0,1,1.34,1.91Z" transform="translate(-1.28 -2.12)"/></svg>
