<svg xmlns="http://www.w3.org/2000/svg" viewBox="0 0 297.76 500"><g id="Capa_2" data-name="Capa 2"><path d="M286.28,60.78s0-.06,0-.09V58.21h-.14c-3.39-28.26-62.45-50-137.24-50S15,30,11.64,58.21h-.15v82c0,7,3.33,13.77,9.89,20V426c0,17,12.12,33,34.14,45.23,23.65,13.11,57.19,20.62,92,20.62s68.34-7.51,92-20.62C261.53,459,273.65,443,273.65,426V162.68c8.37-6.92,12.63-14.47,12.63-22.45V60.87S286.28,60.81,286.28,60.78ZM148.88,14.56c71,0,131,21.17,131,46.22,0,.14,0,.29,0,.48,0,.48-.05,1-.11,1.44a1.93,1.93,0,0,0,0,.27l0,.16a10.05,10.05,0,0,1-.2,1.07l0,.17c0,.13-.06.26-.1.39l-.08.28c0,.12-.06.24-.09.33a17.94,17.94,0,0,1-1.13,2.85c-.09.18-.18.36-.31.6a21.81,21.81,0,0,1-1.88,3c-.14.21-.3.41-.52.69s-.35.45-.59.74-.37.45-.64.74-.39.44-.67.73-.42.46-.71.74c-.44.46-.94.94-1.53,1.47s-1,.91-1.61,1.4c-.35.31-.72.59-1.14.92s-.63.5-1,.75l-.81.6-.27.2c-.67.49-1.4,1-2.24,1.53-1.76,1.15-3.68,2.29-5.72,3.39-.68.37-1.37.74-2.07,1.1l-.11,0c-.69.36-1.38.7-2.14,1.06s-1.47.7-2.22,1l-2.36,1c-.74.31-1.47.62-2.25.93-1.71.7-3.47,1.38-5.24,2l-2.74,1-2.81.94-1.1.35-1.47.46-1.61.49-.79.23c-1.21.36-2.44.71-3.68,1.05l-2.52.66c-.81.22-1.63.43-2.52.64l-2,.49q-2.58.61-5.18,1.17c-1.7.36-3.4.71-5.09,1v0l-2.35.45-2.4.44c-1.56.28-3.15.54-4.74.8-1.2.19-2.4.36-3.62.54-3.58.52-7.27,1-11,1.39h-.2c-1.68.18-3.39.36-5.14.51-1.57.15-3.17.28-4.79.41l-.89.07c-1.53.11-3.07.22-4.61.3l-.66.05-3.18.17-2.75.13c-1.22.06-2.44.1-3.79.14-.59,0-1.18,0-1.88,0-1.06,0-2.12.06-3.26.07-.51,0-1,0-1.54,0H153c-1.35,0-2.71,0-4.08,0-28.71,0-56-3.31-79-9.58-2.76-.75-5.65-1.61-8.6-2.56-.85-.28-1.69-.55-2.51-.84C33.17,85.3,18.32,73.46,17.88,61.24v-.46C17.88,35.73,77.87,14.56,148.88,14.56ZM263,169.94c1-.55,1.92-1.11,2.83-1.67l.52-.33c.31-.19.63-.38.93-.58V196.7c-.38.32-.77.65-1.17,1s-.7.58-1.07.87c-.53.41-1.09.81-1.64,1.22l-1.09.8c-.62.44-1.28.87-1.93,1.3-.34.22-.66.45-1,.67-1,.64-2.06,1.28-3.14,1.91-.71.42-1.45.84-2.19,1.26a127.41,127.41,0,0,1-17.66,8c-1.52.56-3.15,1.16-4.8,1.7A206.59,206.59,0,0,1,206.7,222a289.29,289.29,0,0,1-57.82,5.56c-32.28,0-63.34-4.92-87.48-13.86C48.12,208.74,37.55,202.89,30,196.26c-.46-.4-.91-.82-1.37-1.25l-.4-.38-.44-.44V165.51c.24.17.51.33.75.5.47.33,1,.65,1.45,1s1.23.8,1.86,1.2l1.57.95c.66.39,1.34.77,2,1.15s1.1.62,1.67.92,1.45.75,2.19,1.12l1.76.87,2.4,1.11c.59.27,1.18.54,1.79.8.88.38,1.78.75,2.68,1.12.59.24,1.17.49,1.77.72,1,.41,2.09.8,3.15,1.19.52.19,1,.39,1.55.57,1.61.58,3.25,1.14,4.94,1.69,24.79,8,56.6,12.44,89.57,12.44,7.76,0,15.41-.23,22.9-.7a319.34,319.34,0,0,0,32.36-3.64v0l3.76-.66h0l2.6-.46v0c1.85-.35,3.67-.7,5.47-1.08q7-1.47,13.39-3.22v.06l4.09-1.2h0l2.29-.68v0l2.67-.82a151,151,0,0,0,16.19-6.22v.12l4.64-2.36h0L261,171v0l1.39-.76Zm4.28,34.91V360.38c0,12.5-10.9,24.66-30.69,34.23C213.78,405.66,181.32,412,147.51,412s-66.27-6.33-89.06-17.38C38.66,385,27.76,372.88,27.76,360.38V202.75l.67.51,1.42,1.09c.62.46,1.25.93,1.9,1.38s1,.71,1.54,1.07,1.35.89,2.05,1.33c.54.35,1.08.69,1.64,1,.72.44,1.47.87,2.22,1.3l1.72,1c.79.43,1.61.86,2.43,1.28l1.77.91c.88.43,1.78.86,2.69,1.28l1.75.82c1,.46,2.09.91,3.16,1.35l1.53.66c1.61.65,3.25,1.29,4.94,1.92,24.82,9.19,56.67,14.25,89.69,14.25A295.2,295.2,0,0,0,208,228.21a214.51,214.51,0,0,0,25.62-6.8c1.71-.57,3.41-1.18,5-1.76A129.93,129.93,0,0,0,259.44,210c1.08-.63,2.13-1.28,3.15-1.93l.52-.33c1-.62,1.91-1.26,2.83-1.9l.53-.38Zm-43.72-99.72.81-.2c.9-.21,1.8-.44,2.62-.66s1.63-.42,2.42-.64v72.8l-2.58.72-1.4.37c-1.8.47-3.63.93-5.5,1.36l-1.12.25c-1.53.35-3.07.69-4.64,1l-1.84.38-1.78.34V107.93l1.1-.21c3.54-.68,7.12-1.45,10.64-2.28Zm31.1-10.41V167.1l-.16.08c-1.18.58-2.4,1.14-3.65,1.7l-.64.28c-1.24.54-2.52,1.07-3.83,1.6l-.68.26c-1.34.53-2.71,1-4.11,1.55l-.53.19c-1.48.53-3,1-4.55,1.55l-.71.22V101.79l1.58-.51,1.1-.35c1-.32,1.95-.64,2.94-1l2.82-1c1.86-.67,3.72-1.38,5.48-2.11.79-.31,1.57-.64,2.39-1s1.65-.72,2.44-1.08ZM17.88,140.23V77.09l.23.27c.34.41.69.82,1.06,1.23l.47.51c.35.37.7.73,1.07,1.1l.46.46c.52.5,1.06,1,1.61,1.5l.2.16c.51.45,1,.88,1.56,1.32l.6.48c.43.34.88.68,1.33,1l.64.48c.56.41,1.14.81,1.73,1.21l.3.22q1,.69,2.13,1.38l.7.43c.53.32,1.06.65,1.61,1l.81.46,1.83,1,.6.33c.82.43,1.66.87,2.52,1.29l.7.34c.65.32,1.31.64,2,1l.93.43,2,.9.82.36c1,.41,1.91.81,2.89,1.2l.56.22,2.5,1,1,.37c.75.28,1.51.55,2.29.82l1,.34c1.08.38,2.18.75,3.29,1.11,3,1,6,1.87,8.9,2.65,1.51.41,3,.81,4.58,1.19l1.21.29q1.74.44,3.51.84l1.25.28c1.2.26,2.39.53,3.6.78l1.08.21c1.29.27,2.59.53,3.9.77l.85.16c1.4.26,2.82.51,4.25.75l.59.1c1.53.26,3.08.5,4.64.74l.28,0a344.73,344.73,0,0,0,49.25,3.63h1.68l4.16,0h.77c.56,0,1.12,0,1.61,0,1.13,0,2.24,0,3.24-.08.66,0,1.35,0,2.07,0,1.27,0,2.54-.08,3.8-.14l2.76-.13,3.26-.17c.24,0,.48,0,.73,0,1.54-.09,3.08-.19,4.64-.31l.9-.08c1.64-.13,3.27-.25,4.86-.41s3.39-.32,5-.5h.21c3.9-.42,7.74-.9,11.4-1.44l3.7-.55h.05l2-.33V182l-2.26.38c-1,.16-2,.33-3.09.48-1.23.19-2.46.36-3.7.53-1,.14-2.08.29-3.13.42-1.26.16-2.52.3-3.79.44-1,.12-2.1.25-3.16.36l-3.89.37c-1.05.09-2.09.2-3.15.28-1.34.11-2.7.2-4.05.3-1,.07-2,.15-3.09.21-1.43.09-2.87.16-4.32.23l-2.91.14q-2.43.09-4.89.15l-2.43.07q-3.67.07-7.4.08c-32.32,0-63.43-4.31-87.6-12.14-13.12-4.25-24-9.51-31.47-15.23-1.06-.82-2.1-1.68-3.1-2.59h0C20.84,151.21,17.88,145.74,17.88,140.23ZM267.26,426c0,14.55-10.95,28.63-30.84,39.64-22.75,12.6-55.15,19.83-88.91,19.83s-66.16-7.23-88.9-19.83c-19.89-11-30.85-25.09-30.85-39.64V378.84c5.72,8,15.15,15.35,27.91,21.52,23.63,11.45,57.1,18,91.84,18s68.22-6.57,91.85-18c12.76-6.17,22.19-13.52,27.9-21.52Zm12.63-285.74c0,5.2-2.62,10.32-7.77,15.28l-3.75,3.23-.24.2-.19.15c-.72.55-1.48,1.09-2.26,1.64l-.54.37c-.78.53-1.59,1.06-2.43,1.58l-.38.23c-.42.26-.87.51-1.3.77V91.56l.47-.25c2.18-1.18,4.26-2.42,6.14-3.65.93-.6,1.77-1.17,2.55-1.74l.26-.19.89-.66,1.11-.85c.45-.36.9-.71,1.28-1,.64-.53,1.25-1.06,1.78-1.55s1.3-1.2,1.81-1.74c.3-.31.6-.61.82-.86s.57-.61.78-.85.55-.62.75-.87l.22-.26Z"/><path d="M212.93,294l10.75-11a3.19,3.19,0,0,0-4.56-4.47L208.2,289.72l-11.53-10.48a3.19,3.19,0,1,0-4.3,4.72l11.36,10.33L193,305.24a3.19,3.19,0,0,0,2.28,5.43,3.16,3.16,0,0,0,2.28-1l10.92-11.13L220,309.07a3.21,3.21,0,0,0,2.15.83,3.15,3.15,0,0,0,2.36-1,3.19,3.19,0,0,0-.21-4.51Z"/><path d="M95.82,310.55a3.19,3.19,0,0,0,4.91-4.08l-9.81-11.81,12.17-9.35a3.19,3.19,0,1,0-3.9-5.06l-12.35,9.5-10-12A3.19,3.19,0,1,0,72,281.84l9.81,11.8L69.6,303a3.19,3.19,0,0,0,3.9,5.06l12.35-9.5Z"/><path d="M97.63,338.91a3.2,3.2,0,1,0-.88,6.33,362.09,362.09,0,0,0,59.64,3.14v21.3l.06.62a22.64,22.64,0,0,0,21.13,18.17h.73a22.62,22.62,0,0,0,22-18.5l.06-31.52-3.59.44C161.93,343.22,128.57,343.22,97.63,338.91ZM194,369.09a15.88,15.88,0,0,1-31.19.25V348.16q15.38-.66,31.19-2.49Z"/></g></svg>