<svg xmlns="http://www.w3.org/2000/svg" viewBox="0 0 50 50"><defs><style>.cls-1{fill:#3cb19f;opacity:0.64;}.cls-2{fill:#d1d1d1;}</style></defs><g id="Mision"><path class="cls-1" d="M42.25,17.67a7.73,7.73,0,0,1-1.68-1c-.57-.51-1.06-1.08-1.65-1.57A28,28,0,0,1,36.58,13a6.22,6.22,0,0,1,.18-1.12,1.14,1.14,0,0,0,0-.67l.16-.21a19,19,0,0,1,1.4-1.81,19.89,19.89,0,0,1,1.62-1.56,10.61,10.61,0,0,1,1-.78,3.74,3.74,0,0,0,1.38-.5c.89-.56.61-2.2-.57-2.1a4,4,0,0,0-1.44.41,11.22,11.22,0,0,1-1.26,0c-.72,0-1.45-.06-2.16,0a2.41,2.41,0,0,0-1.18.4c-2.93,0-5.84-.48-8.78-.51l-4.46,0a8.18,8.18,0,0,0-1.23.06,2.15,2.15,0,0,0-.45,0,2.3,2.3,0,0,0-2.17,1.65,1.61,1.61,0,0,0-.14.87l.06.38c0,2,0,3.9,0,5.85,0,1-.06,2.06-.13,3.08a3.26,3.26,0,0,0,.29,1.92,2.58,2.58,0,0,0,2.15,1.21c2.06.1,4.11.1,6.17.25s4.4.58,6.45-.32a1.45,1.45,0,0,0,.49-.36,2.59,2.59,0,0,0,.78.08,1.11,1.11,0,0,0,1.07.36,11,11,0,0,1,2.93-.11,16.57,16.57,0,0,1,2.72.33C42.58,20,43.45,18.26,42.25,17.67Z"/><path class="cls-2" d="M18.22,40.46a2.33,2.33,0,0,1-1-.41,2.1,2.1,0,0,1-.6-.85,17.43,17.43,0,0,1-.56-2.77.58.58,0,0,0-.56-.56c-.28,0-.61.26-.57.56.08.58.17,1.15.28,1.72a9.4,9.4,0,0,0,.4,1.56,3.35,3.35,0,0,0,.2.37.59.59,0,0,0-.12.69l0,0a.69.69,0,0,0-.32,0l-1.77.26a8.25,8.25,0,0,0-1.63.32,2.35,2.35,0,0,0-1.63,2.5.59.59,0,0,0,0,.2,12.44,12.44,0,0,0-2.17.43,2.59,2.59,0,0,0-1.36,1,2.68,2.68,0,0,0-.17,1.85.58.58,0,0,0,.7.39A.57.57,0,0,0,7.8,47a4.05,4.05,0,0,1,0-.69A.55.55,0,0,1,7.92,46,2.05,2.05,0,0,1,9,45.46c.89-.22,1.82-.23,2.7-.51a.56.56,0,0,0-.18-1.1,1.52,1.52,0,0,1,.22-1,1.65,1.65,0,0,1,1-.54c.47-.11,1-.16,1.45-.24l1.55-.22a.54.54,0,0,0,.4-.52,1,1,0,0,0,.62.19h1.35A.56.56,0,0,0,18.22,40.46Z"/><path class="cls-2" d="M19,4.7a5.19,5.19,0,0,0-.77-1.77A2.25,2.25,0,0,0,16.54,2a.58.58,0,0,0-.57.57.58.58,0,0,0,.57.56h.07l.15,0,.06,0,.14.08.09.06.1.09a.74.74,0,0,1,.12.13l.05.05h0a2.63,2.63,0,0,1,.2.33l.08.18h0l0,.08q.13.39.24.78a.58.58,0,0,0,.7.4A.57.57,0,0,0,19,4.7Z"/><path d="M44.38,19.53s0-.05,0-.08h0a.51.51,0,0,0,0-.13s0-.06,0-.09l-.05-.06a.5.5,0,0,0-.08-.12h0l-6.92-6.39h0l0,0h0a.84.84,0,0,1-.22-.55.81.81,0,0,1,.29-.61h0l6.87-6.35h0A.83.83,0,0,0,44.3,5l.05-.06s0-.06,0-.09a.69.69,0,0,0,0-.13h0s0-.06,0-.08a.5.5,0,0,0,0-.13.6.6,0,0,0-.06-.11l0-.06h0l-.12-.08-.06,0-.1,0-.12,0H19.24V3.84h0a2.15,2.15,0,1,0-4.29,0h0v37H11.66A2.23,2.23,0,0,0,9.43,43v.82H7.83a2.22,2.22,0,0,0-2.22,2.23v1.83a.39.39,0,0,0,.4.4h22a.4.4,0,0,0,.4-.4V46.08a2.22,2.22,0,0,0-2.22-2.23h-1.6V43A2.23,2.23,0,0,0,22.4,40.8H19.24V20H43.83a.54.54,0,0,0,.22,0l0,0a.62.62,0,0,0,.17-.11h0l0-.07a.39.39,0,0,0,.06-.11A.53.53,0,0,0,44.38,19.53ZM26.23,45a1.1,1.1,0,0,1,1.09,1.1v1.1H6.74v-1.1A1.09,1.09,0,0,1,7.83,45h18.4ZM23.5,43v.82H10.56V43a1.1,1.1,0,0,1,1.1-1.1H22.4A1.1,1.1,0,0,1,23.5,43ZM16.08,40.8v-37h0a1,1,0,1,1,2,0h0v37ZM19.24,5.24H42.39l-5.82,5.37s0,0,0,0a1.93,1.93,0,0,0-.64,1.43,2,2,0,0,0,.58,1.39l5.89,5.43H19.24Z"/><path d="M32,15.87H23.2a.56.56,0,0,0-.57.56.57.57,0,0,0,.57.57H32a.57.57,0,0,0,.56-.57A.56.56,0,0,0,32,15.87Z"/><path d="M35,7.77a.57.57,0,0,0-.57-.57H25.57a.57.57,0,0,0,0,1.13h8.81A.57.57,0,0,0,35,7.77Z"/><path d="M36,15.87H35a.56.56,0,0,0-.56.56A.57.57,0,0,0,35,17h1a.57.57,0,0,0,.57-.57A.56.56,0,0,0,36,15.87Z"/><path d="M23.2,7.77a.56.56,0,0,0-.56-.57h-1a.57.57,0,0,0,0,1.13h1A.56.56,0,0,0,23.2,7.77Z"/></g></svg>
