<svg id="Capa_2" data-name="Capa 2" xmlns="http://www.w3.org/2000/svg" viewBox="0 0 46.14 49"><defs><style>.cls-1{fill:#3cb19f;}</style></defs><g id="Color"><path class="cls-1" d="M40,3.89a1.07,1.07,0,0,0-1-.25h-.13a2.12,2.12,0,0,0-.44.06,2.83,2.83,0,0,0-.55.21V3.22a1,1,0,0,0-2.08,0V4a1.82,1.82,0,0,0-.8.59,5.44,5.44,0,0,0-.68.84,1.78,1.78,0,0,0-.17,1.28v0a2.09,2.09,0,0,0,0,.25,1.21,1.21,0,0,1,0,.19c0-.21,0,.09,0,.12a1.12,1.12,0,0,0,.33,1.06c0,.06,0,.11,0,.17a1,1,0,0,0,1.56.9,8.33,8.33,0,0,0,2.43-2,2.69,2.69,0,0,1,.2-.27c-.16.2.08-.08.12-.11a5.55,5.55,0,0,0,.48-.49c.35-.44.66-.92,1-1.39A1,1,0,0,0,40,3.89Z" transform="translate(-1.93 -0.56)"/><path class="cls-1" d="M30.48,25.72a5.06,5.06,0,0,0-2.14-3.94,6,6,0,0,0-4.59-.68,8.18,8.18,0,0,0-2.31.78c-.66.36-1.11,1-1.76,1.35a.94.94,0,0,0-.38,1.33,4,4,0,0,0-.16,1.17c0,.64,0,1.29,0,1.94a4.3,4.3,0,0,0,.55,2A4,4,0,0,0,21.26,31a8.24,8.24,0,0,0,3.91,1,4.57,4.57,0,0,0,3.65-1.28.89.89,0,0,0,.59-.28,3.92,3.92,0,0,0,.89-2.17A12.26,12.26,0,0,0,30.48,25.72Z" transform="translate(-1.93 -0.56)"/></g><path d="M25,23.55a2.94,2.94,0,1,0,2.93,2.93A2.93,2.93,0,0,0,25,23.55Zm0,4.81a1.88,1.88,0,1,1,1.87-1.88A1.88,1.88,0,0,1,25,28.36Z" transform="translate(-1.93 -0.56)"/><path d="M25,20a6.47,6.47,0,1,0,6.47,6.47A6.48,6.48,0,0,0,25,20ZM25,31.9a5.42,5.42,0,1,1,5.41-5.42A5.42,5.42,0,0,1,25,31.9Z" transform="translate(-1.93 -0.56)"/><path d="M25,15.17A11.32,11.32,0,1,0,36.32,26.48,11.33,11.33,0,0,0,25,15.17Zm0,21.57A10.26,10.26,0,1,1,35.26,26.48,10.27,10.27,0,0,1,25,36.74Z" transform="translate(-1.93 -0.56)"/><path d="M47.54,26H40.82a15.84,15.84,0,0,0-15.29-15.3V3.94a.53.53,0,0,0-1.06,0v6.72A15.84,15.84,0,0,0,9.18,26H2.46a.53.53,0,1,0,0,1.05H9.18a15.84,15.84,0,0,0,15.29,15.3V49a.53.53,0,0,0,1.06,0V42.31A15.84,15.84,0,0,0,40.82,27h6.72a.53.53,0,1,0,0-1.05ZM25,41.28a14.8,14.8,0,1,1,14.79-14.8A14.81,14.81,0,0,1,25,41.28Z" transform="translate(-1.93 -0.56)"/><path d="M41.48,3.39a.74.74,0,0,0,0-.21h0v0A.8.8,0,0,0,41.38,3a.69.69,0,0,0-.13-.11l0,0h0a.47.47,0,0,0-.2-.06.45.45,0,0,0-.16,0h0l-2.58.71L37.58.94h0a.67.67,0,0,0-.06-.12.5.5,0,0,0-.38-.26h-.2l-.18.09a.47.47,0,0,0-.13.15h0L33.81,5.7s0,0,0,0l0,.1s0,.07,0,.11V6L34,9.91,24.55,26.22a.52.52,0,0,0,.19.71A.48.48,0,0,0,25,27a.52.52,0,0,0,.45-.26l9.42-16.32,3.51-1.75h0l0,0a.47.47,0,0,0,.14-.14l0,0,2.82-4.89h0A.7.7,0,0,0,41.48,3.39ZM37.77,7.81,35,9.21l-.19-3.13,2.11-3.65.49,1.87h0a.62.62,0,0,0,.11.17s0,.08.08.11a.57.57,0,0,0,.31.1H38l1.86-.51Z" transform="translate(-1.93 -0.56)"/></svg>
