<svg xmlns="http://www.w3.org/2000/svg" viewBox="0 0 50 50"><defs><style>.cls-1{fill:#3cb19f;opacity:0.6;}.cls-2{fill:#d1d1d1;}</style></defs><g id="Vision"><circle class="cls-1" cx="37.82" cy="32.21" r="7.8"/><circle class="cls-1" cx="12.18" cy="32.21" r="7.8"/><path class="cls-2" d="M32.9,10a1.11,1.11,0,0,1-.45.48c-.47.2-.93.38-1.4.56l-.29.11-.14.06,0,0h0l-.14.06a2.44,2.44,0,0,0-.28.14,4.08,4.08,0,0,0-.57.34l-.24.17-.12.08c-.12.1,0,0,.07-.05a10.56,10.56,0,0,1-1,.69A13.65,13.65,0,0,0,27,17.23a14.66,14.66,0,0,0,.3,5.32c0,.05,0,.09,0,.14a1.24,1.24,0,0,0-.49.11c-.05,1.38-.13,2.76-.13,4.14a1.14,1.14,0,0,1-.27.72,2.17,2.17,0,0,0,.17.7,1,1,0,0,0,.64.54l.06-.2a6,6,0,0,1,.8-1.47c.39-.54.72-1.12,1.14-1.64a5.09,5.09,0,0,1,1.26-1.1,1.39,1.39,0,0,0-.09-.45c-.25-.73-.6-1.38-.79-2.14a10.27,10.27,0,0,1-.33-2.53c-.06-2.85.65-7,3.66-8.21a1.27,1.27,0,0,0,.85-1.34Z"/><path class="cls-2" d="M19.37,11.18c-.07,0-.47-.2-.26-.12l-.42-.16a14,14,0,0,0-1.8-.48l-.52-.09h0l-.24,0c-.3,0-.61,0-.92-.05a7.7,7.7,0,0,0-1,0H14l-.36.06a1.29,1.29,0,0,1-.81-.09,16.89,16.89,0,0,0-5.14,5.56A34.4,34.4,0,0,0,6,19.58c-.61,1.39-1.67,2.36-1.81,4a1,1,0,0,0,.2.67,22.87,22.87,0,0,1,4.31-2.09c0-.28.1-.56.16-.84a14.84,14.84,0,0,1,1.91-5,9.66,9.66,0,0,1,8.72-4.86l.16,0Z"/><path d="M47.79,26.56,42.21,14.74s0,0,0,0a8.26,8.26,0,0,0-4.38-4.43,5.32,5.32,0,0,0-10.44,1,.65.65,0,0,0,0,.2V14a8.08,8.08,0,0,0-.9,2.88H23.58a8.18,8.18,0,0,0-.94-2.94V11.49a.65.65,0,0,0,0-.2,5.32,5.32,0,0,0-10.45-1,8.23,8.23,0,0,0-4.36,4.47L7,16.43a.61.61,0,0,0,.28.81.58.58,0,0,0,.26.06A.62.62,0,0,0,8.08,17l1.26-2.6a.06.06,0,0,0,0,0,7,7,0,0,1,13.08,3.45h0v9.34a11.22,11.22,0,0,0-2.74-3.55h0a.23.23,0,0,1-.07-.07v0h0a.58.58,0,0,0-.34-.11.6.6,0,0,0-.6.6.58.58,0,0,0,.19.44,10.26,10.26,0,0,1,3.58,7.78h0a10.26,10.26,0,1,1-19.7-4l.54-1.09a9.87,9.87,0,0,1,1.12-1.61,10.26,10.26,0,0,1,11.84-2.76.6.6,0,1,0,.47-1.11,11.29,11.29,0,0,0-4.52-.93,11.46,11.46,0,0,0-6.93,2.33L7,19.56a.6.6,0,0,0-.27-.81.61.61,0,0,0-.82.28l-3.7,7.6c-.2.36-.37.72-.53,1.08l-.09.18s0,.05,0,.08a11.46,11.46,0,1,0,22.11,4.26h2.72a11.47,11.47,0,1,0,21.43-5.67ZM40.85,14.72l.07.09.19.41s0,0,0,0l3.73,7.91a11.41,11.41,0,0,0-17.28,3.94V17.73h0a7,7,0,0,1,13.27-3ZM26.36,18.05V31H23.64v-13Zm2.18-6.36A4.13,4.13,0,0,1,36.36,9.8a8.57,8.57,0,0,0-1.77-.19,8.23,8.23,0,0,0-6.05,2.66ZM15.41,9.61a8.3,8.3,0,0,0-1.81.22,4.13,4.13,0,0,1,7.83,1.86v.55A8.19,8.19,0,0,0,15.41,9.61ZM37.82,42.46A10.26,10.26,0,0,1,27.57,32.21h0v0a10.24,10.24,0,0,1,19.15-5.06l.6,1.29,0,0a10.22,10.22,0,0,1-9.53,14Z"/><path d="M40.86,24.23l-.1,0a.57.57,0,0,0-.73.37.64.64,0,0,0,.39.79,7.37,7.37,0,0,1,4.72,6.85,7.51,7.51,0,0,1-.47,2.6,7.38,7.38,0,0,1-6.85,4.72,7.26,7.26,0,0,1-2.6-.48A7.38,7.38,0,0,1,30.5,32.2a7.33,7.33,0,0,1,7.2-7.32.6.6,0,0,0,.6-.61.58.58,0,0,0-.62-.6,8.54,8.54,0,0,0-8.39,8.53,8.54,8.54,0,1,0,11.57-8Z"/><path d="M3.65,32.21a8.53,8.53,0,1,0,8.53-8.54A8.54,8.54,0,0,0,3.65,32.21Zm15.85,0a7.32,7.32,0,1,1-7.32-7.32A7.34,7.34,0,0,1,19.5,32.21Z"/></g></svg>
