<svg id="Capa_1" data-name="Capa 1" xmlns="http://www.w3.org/2000/svg" viewBox="0 0 301.77 234.71"><path d="M327.45,95.28h0c-.18-1-.42-1.88-.66-2.81-.08-.29-.15-.59-.23-.88-.25-.85-.53-1.67-.83-2.49-.12-.36-.25-.71-.38-1.06-.31-.78-.64-1.54-1-2.3l-.53-1.1c-.37-.72-.75-1.44-1.15-2.13-.21-.37-.44-.73-.66-1.09-.42-.68-.84-1.35-1.3-2-.25-.36-.51-.69-.77-1-.48-.63-.95-1.26-1.46-1.86-.26-.31-.55-.61-.83-.91a42.59,42.59,0,0,0-3.57-3.54l-.62-.56c-.48-.4-1-.76-1.48-1.13s-1-.77-1.51-1.13-1-.64-1.49-1-1.12-.7-1.7-1-1-.54-1.53-.8-1.23-.62-1.86-.9-1-.45-1.55-.65c-.67-.27-1.35-.51-2-.75l-1.56-.5c-.73-.21-1.47-.39-2.22-.57-.5-.11-1-.24-1.5-.34-.85-.16-1.71-.28-2.57-.39-.43,0-.85-.13-1.29-.17-1.31-.13-2.63-.2-4-.2H67.41c-1.34,0-2.66.07-4,.2-.43,0-.85.12-1.28.17-.87.11-1.73.23-2.57.39-.51.1-1,.23-1.5.34-.75.18-1.5.36-2.23.58-.52.15-1,.32-1.55.49-.69.24-1.37.48-2,.75s-1,.42-1.55.65-1.25.58-1.87.9-1,.52-1.53.8-1.14.68-1.7,1-1,.62-1.49,1-1,.75-1.51,1.13-1,.73-1.47,1.13c-.23.19-.45.41-.67.61A41.52,41.52,0,0,0,37,75.62c-.28.3-.56.6-.83.91-.51.6-1,1.23-1.46,1.87-.25.34-.52.67-.77,1-.45.64-.88,1.31-1.3,2-.22.36-.45.72-.66,1.09-.4.69-.78,1.41-1.14,2.13-.19.36-.36.73-.54,1.1-.35.76-.68,1.52-1,2.29-.14.36-.26.71-.39,1.07-.3.82-.58,1.64-.82,2.48-.09.3-.16.6-.23.9-.25.92-.49,1.85-.67,2.79h0a41.45,41.45,0,0,0-.74,7.7V255.73a41,41,0,0,0,41,41H287.22a41,41,0,0,0,41-41V103A41.45,41.45,0,0,0,327.45,95.28Zm-40.23-7.15a14.19,14.19,0,0,1,2.27.19l.39.06a14.43,14.43,0,0,1,2.08.54l.14,0-109,80.86a9.74,9.74,0,0,1-11.61,0L62.53,89l.13,0a14.56,14.56,0,0,1,2.09-.54l.38-.06a14.32,14.32,0,0,1,2.28-.19H287.22Zm0,182.45H67.41a14.87,14.87,0,0,1-14.85-14.85V114.11l103.38,76.7a35.85,35.85,0,0,0,42.75,0l103.38-76.7V255.73A14.88,14.88,0,0,1,287.22,270.58Z" transform="translate(-26.43 -62)"/></svg>